<?xml version="1.0" encoding="UTF-8"?>
<svg id="Layer_3" data-name="Layer 3" xmlns="http://www.w3.org/2000/svg" viewBox="0 0 128 128">
  <defs>
    <style>
      .cls-1 {
        fill: #1987bb;
      }

      .cls-2 {
        fill: #5ba75d;
      }
    </style>
  </defs>
  <path class="cls-2" d="M113.53,23.42c-.5.94-.23,1.94-.23,2.9,0,1.46-.35,3.06-1.08,4.34l-1.24,2.16c-.2.35-.66.94-.96,1.2l-2.51,2.21-1.2.68-3.77,2.1-.91.35c-.33.13-.76.26-1.23.35.41-6.57,2.23-12.72,5.02-18.51.16-.34.82-.55.57-1.49-.73.37-.86,1.02-1.25,1.51-5.87,7.31-6.93,16.44-7.42,25.72l-.73,13.96,3.12-4.88c.85-5.06,3.28-9.53,7.3-12.48.34-.03.62-.5.92-.62l4.69-1.88.95-.3,4.07-.57,5.91.22c.13.27.48.21.71.22.74.02,1.42.05,2.33.35-1.73,2.02-2.58,4.17-3.41,6.54l-2.12,6.03c-2.03,4.65-6.21,7.76-11.3,8.18l-7.66.63c3.07-6.34,7.85-11.1,13.32-15.05.39-.28.96-.36,1.33-.9-.77-.31-1.07.33-1.41.43-1.56.47-2.95,1.27-4.43,2.23-8.53,5.56-12.96,14.51-17.23,23.31l-1.82,3.76,2.71-1.06c.84-.33,1.2-.95,1.68-1.38,7.69-6.84,17.59-4.02,24.41,3.77l-3.08.84-5.46,3.01c-2.13,1.52-4.45,2.71-7,2.7h-2.3c-2.99-.03-4.43-1.43-6.84-2.35l-1.06-1.11c4.72-2.99,9.85-4.27,15.43-4.71-3.86-1.4-7.75-.69-11.49.36-2.99.97-5.56,2.52-8.02,4.09-2.47,1.57-4.48,3.54-6.68,5.64-10.88,10.35-27.38,14.67-41.46,9.22-5.72-2.21-10.79-6.13-13.36-11.95,8.21,9.14,21.03,12.66,32.52,9.39,5.35-1.52,10.04-4.85,12.54-9.7,1.36-2.62.79-5.27-1.25-7.18-1.86-1.74-3.35-3.82-4-6.3-.57-2.63.03-5.16.77-7.71,1.01-3.45,1.25-6.75.37-10.19,4.15,1.55,7.48,3.49,10.5,6.18,6.17,5.49,6.84,14.94.77,20.68,1.07-5.83-.19-11.37-3.77-15.77-.13-.16-.16-.4-.51-.3-.13.04-.23.31-.16.45.05.1.12.17.21.27,3.73,8.57,3.2,16.04-2.1,24.19,7.85-4.43,12.89-11.58,15.84-19.51,1.21-5.22.36-10.53-2.35-15.13l-4.73-.86c-4.96-.9-8.28-4.31-9.87-9.01-1.07-3.15-2.5-6.11-4.79-8.32l-.03-.62c5.59-1.25,11.96-.94,16.87,2.01l2.24,1.74.66.91,1.89,3.2c.09.16.22.47.25.65l.38,2.15.11,3.02c-2.86-4.09-6.91-7.33-11.85-8.8l-.23.28c3.97,2.4,7.37,5.63,10.09,9.55,1.79,2.75,2.86,5.59,3.89,8.93l1.05-10.5.68-7.79c.1-1.08-.64-2.2-.78-3.18l-.38-2.52c-.46-3.05-.17-6.11.73-9.05.1-.34.3-.94.49-1.25l2.37-3.91c.18-.3.56-.82.84-1.01l2.13-1.92c3.81-2.94,8.25-4.82,13.21-5.89-1.02,2.43-1.51,4.56-1.2,6.98l.77,6.01ZM106.18,19.35l-.16.16.16.16.16-.16-.16-.16ZM79.68,38.58l-.39.12.39-.12ZM117.17,46.02l-.16.16.16.16.16-.16-.16-.16ZM76.98,61.71l-.16.16.16.16.16-.16-.16-.16ZM75.29,87.44c0-.19-.16-.35-.35-.35s-.35.16-.35.35.16.35.35.35.35-.16.35-.35Z"/>
  <path class="cls-1" d="M119.54,103.31c.68.81,1.54,1.66,2.45,2.07l.37.64.09.84-1.9-.86c-1.39-1.01-3.22-1.45-4.87-1.96l-3.06-.94c.01-.19-.23-.2-.4-.21l-.89-.05c-.42-.16-.85-.26-1.28-.29l-.9-.05c-2.35-.44-4.85-.22-7.22-.03l-1.48.12c-.25.04-.48.11-.71.24l-1.17.09c-.24.02-.48.09-.69.23l-.59.05-5.82,2.04-.87.34c-.46.18-.95.29-1.3.68-1.08.24-2.1.89-3.19,1.44l-8.05,4.08c-.48.18-.94.38-1.34.69-.29-.02-.62.23-.87.31-.48.15-.93.31-1.33.62-.29-.02-.62.23-.87.31s-.5.16-.67.37c-.06,0-.14,0-.2-.05l-5.36,1.6-.98.29c-.66.19-1.37.24-1.95.61-.15-.04-.41-.03-.54,0l-.74.18c-8.5,1.58-17.17.95-25.24-2.16-5.19-2.23-10.01-5.27-13.89-9.55-7.36-7.72-10.15-17.66-8.51-28.49-3,6.35-2.58,13.7-.15,20.2,2.61,6.97,7.52,12.67,13.69,16.67.87.67,1.61,1.17,2.46,1.57v.61s-.59.02-.59.02c-.09-.09-.2-.22-.32-.27l-3.96-1.61c-.23-.44-.65-.68-1.1-.81-4.22-3.05-8.23-6.6-11.14-11.12l-.65-1.24-2.08-4.38c-1.5-3.87-1.87-8.15-1.82-12.51.14-12.5,8.63-24.74,21-25.28,4.01-.18,7.83.93,10.47,4.01-5.13-2.05-10.4-1.11-14.39,2.62-3.49,3.25-5.2,7.75-5.64,12.6-.7,7.77,2.3,15.22,7.72,20.83,12.12,12.55,31.45,13.77,46.76,6.88l8.89-4c5.79-2.61,11.97-3.92,18.29-3.64,6.18.28,11.56,2.37,16.51,5.64Z"/>
  <path class="cls-2" d="M26.31,41.69c.2-.07.43-.14.63-.25l2.14-.44c.23-.05.47-.07.68-.19,9.47-1.79,20.96,1.65,25.23,10.67,1.2,2.54,1.63,5.34.75,7.97-.6,1.8-2.23,2.87-3.65,3.14-2.04.39-3.86-.02-5.07-1.54l-2.91-3.68c-.55-.7-1.35-1.56-1.88-2.04l-.5.38c.49,1.31.83,2.66.74,4.11-5.41-4.88-12.5-5.23-19.1-2.56-14.52,5.88-20,25.3-12.34,39.07.81,1.45,1.44,3.11,2.8,4.22l.65,1.24c2.91,4.53,6.92,8.07,11.14,11.12l-1.28-.35c-.06-.26-.31-.37-.53-.33-.18-.41-.61-.57-1.03-.65-2.17-1.25-4.33-2.73-6.14-4.48l-3.2-3.1-4.37-5.26-2.82-4.49c-1.99-3.18-3.19-6.84-3.84-10.52l-.58-3.26c-.8-4.5-.46-9.56.36-13.97.22-.33.25-.7.23-1.05.55-2.94,1.43-5.99,2.83-8.66l1.56-2.97c2.41-4.59,7.39-9.98,12.04-13.49-.39,2.19-1.89,3.54-2.7,6.07,3.33-1.81,6.47-3.8,10.15-4.71ZM45.73,48.67c-8.73-6.66-21.09-4.99-29.37,2.23-5.06,4.41-8.78,10.39-9.91,17.23,1.8-3.95,3.55-7.71,6.51-10.93,5.94-6.46,14.48-9,22.43-4.74-1.55-3.64-5.15-4-8.96-4.68,6.34-2.09,13.24-1.86,19.09,1.17l.22-.28ZM45.9,48.82l-.16.22c.23.19.51.33.78.43l.15-.16-.77-.49ZM46.8,49.77l.17-.17c-.17-.25-.42,0-.17.17ZM41.71,55.45c-.45-.17.61.22.17-.44l-.17.44ZM6.34,68.3v.2s0,.21,0,.21v.2s.01-.2.01-.2v-.42Z"/>
  <path class="cls-1" d="M119.53,99.36c-.04.2.07.45.13.66-9.42-6.18-21.1-7.48-31.75-3.38l-10.94,4.74c-9.05,3.92-17.77,6.01-27.68,4.12-7.2-1.3-13.88-4.56-18.74-10.04-5.43-6.13-7.8-14.5-5.31-22.24-.51,13.1,7.59,22.43,19.74,25.99,9.45,2.6,19.11,1.56,28.11-2.29l11.86-5.08c12.64-4.56,25.93-2.71,34.57,7.52Z"/>
  <path class="cls-2" d="M86.93,19c.44.76,1.11,1.43,1.86,1.86.07.4.41.69.59,1,.56.98,1.08,2.05,1.2,3.17l.16,1.52-.5,6.52c-.03.4-.21.63-.51.69l-.27-.03c-.16-.28-.41-.48-.7-.63l-4.5-3.28c-1.61-1.17-2.24-2.98-2.7-4.79l-.34-1.37c-.05-2.4.25-5.11,1.13-7.52l4.58,2.85Z"/>
  <path class="cls-1" d="M54.85,34.48c.02.35.21.71.49,1.13l.07.5c.07.44.07.82-.04,1.18-.39,1.27-1.39,2.01-2.77,2.13-3.98.34-6.49-3.12-15.58-2.06l-2.59.3.04-.51c3.17-1.86,6.53-3.18,10.13-3.95l1.03-.22,4.52-.19c1.8-.08,3.3.68,4.72,1.7Z"/>
  <path class="cls-2" d="M23.42,39.36c.44-.26.73-.73,1.12-1.23l3.48-6.33c.91-1.66,2.2-2.86,4.23-2.74.89.05,1.76.48,2.09,1.2.86,1.87-.7,3.89-2.76,5.06l-7.65,4.32c-.31.18-.54.08-.52-.29Z"/>
  <path class="cls-1" d="M60.19,70.95c-.65.81-1.48,1.15-2.34,1.1s-1.62-.68-1.99-1.63c-1-2.92,2.18-6.13,2.55-10.68,2.02,3.37,3.85,7.94,1.78,11.21Z"/>
  <path class="cls-1" d="M65.25,60.05c-4.64,2.11-4.78-4.61-7.96-9.47,4.67,2.1,10.36,4.94,7.96,9.47Z"/>
  <path class="cls-1" d="M51.36,42.87l.11-.59,8.1,1.21c1.17.18,2.4.66,3.07,1.57.55.75.4,1.68.02,2.32-.91,1.53-3.93.84-6.02-.68l-5.28-3.84Z"/>
  <path class="cls-1" d="M43.19,28.46c.02.1.03.33,0,.49-.24,1.49-3.74,3.16-4.69,2.31-.45-1.47.93-3.37,2.19-4,.59-.29,1.35-.13,1.8.09.34.17.57.63.69,1.1Z"/>
  <path class="cls-1" d="M51.73,70.62c-.31,1.01-.76,1.61-1.49,1.73-.83.14-1.75-.29-1.94-1.32-.22-1.26.81-2.81,2.13-2.88s1.64,1.38,1.3,2.47Z"/>
  <path class="cls-2" d="M33.86,116.05c.36.17.76.31,1.14.77-1.18-.22-2.44-.52-3.4-1.23v-.61s2.26,1.07,2.26,1.07Z"/>
  <path class="cls-2" d="M122.45,106.86l-.09-.84c.58.24.92.78,1.43,1.4-.56.05-.9-.36-1.34-.56Z"/>
  <path class="cls-2" d="M34.47,37.14l-.04.51c-.43.39-.92.52-1.55.43.4-.59,1.01-.72,1.6-.94Z"/>
  <path class="cls-2" d="M51.47,42.28l-.11.59c-.36-.26-.96-.29-1.24-.88.57-.13.94.23,1.36.29Z"/>
  <path class="cls-2" d="M31.01,115.6c-.17.02-.38-.02-.32-.27.12.05.23.18.32.27Z"/>
</svg>
